# xmcd
#
# Track frame offsets:
#	150
#	19832
#	34475
#	57775
#	72575
#	90012
#	102692
#	121630
#	144987
#	163887
#	181287
#	196337
#	213537
#	227405
#	246400
#	266962
#	282705
#	298475
#
# Disc length: 4224 seconds
#
# Revision: 1
# Processed by: cddbd v1.5.2PL0 Copyright (c) Steve Scherf et al.
# Submitted via: audiograbber 1.83.01
#
DISCID=1d107e12
DTITLE=Вячеслав Добрынин - Лучшее
DYEAR=1993
DGENRE=Chanson
TTITLE0=Синий туман
TTITLE1=Акулина
TTITLE2=Не сыпь мне соль на рану
TTITLE3=Бабушки - старушки
TTITLE4=Нежная
TTITLE5=Колдовское озеро
TTITLE6=Льётся музыка
TTITLE7=Сумасшедший дождь
TTITLE8=Казино
TTITLE9=Не обижай
TTITLE10=Измена
TTITLE11=Любовники
TTITLE12=Успокойся
TTITLE13=Была не была
TTITLE14=Улыбнись мне, моя отрада
TTITLE15=Спасатель
TTITLE16=Загнал коней
TTITLE17=Будет праздник
EXTD=
EXTT0=
EXTT1=
EXTT2=
EXTT3=
EXTT4=
EXTT5=
EXTT6=
EXTT7=
EXTT8=
EXTT9=
EXTT10=
EXTT11=
EXTT12=
EXTT13=
EXTT14=
EXTT15=
EXTT16=
EXTT17=
PLAYORDER=
